<svg width="96pt" height="96pt" version="1.0" viewBox="0 0 96 96" xmlns="http://www.w3.org/2000/svg"><defs><linearGradient id="b" x1="150.961" x2="112.031" y1="192.352" y2="137.273" gradientTransform="matrix(.48051 0 0 .485149 -12.2808 -9.99592)" gradientUnits="userSpaceOnUse"><stop stop-color="#ffd43b" offset="0"/><stop stop-color="#ffe873" offset="1"/></linearGradient><linearGradient id="a" x1="26.6489" x2="135.665" y1="20.6038" y2="114.398" gradientTransform="matrix(.48051 0 0 .485149 -12.2808 -9.99592)" gradientUnits="userSpaceOnUse"><stop stop-color="#5a9fd4" offset="0"/><stop stop-color="#306998" offset="1"/></linearGradient></defs><path d="m47.4346 7.25447e-4c-3.91525 0.0181923-7.65421 0.352107-10.9442 0.934254-9.69166 1.7122-11.4513 5.29599-11.4513 11.9051v8.72866h22.9026v2.90954h-31.4978c-6.65614 0-12.4844 4.00072-14.3075 11.6114-2.10283 8.72371-2.1961 14.1674 0 23.2764 1.628 6.78033 5.51589 11.6114 12.172 11.6114h7.87441v-10.4636c0-7.55941 6.54056-14.2274 14.3075-14.2274h22.8759c6.36785 0 11.4513-5.24308 11.4513-11.6381v-21.8082c0-6.20674-5.23609-10.8692-11.4513-11.9051-3.93433-0.65492-8.01654-0.952449-11.9318-0.934254zm-12.3856 7.02027c2.36568 0 4.29758 1.96345 4.29758 4.37766-2e-6 2.40565-1.9319 4.35097-4.29758 4.35097-2.37417-1e-6 -4.29758-1.94532-4.29758-4.35097-1e-6 -2.41421 1.92342-4.37766 4.29758-4.37766z" fill="url(#a)" stroke-width=".854176"/><path d="m73.6739 24.4783v10.17c0 7.88469-6.6847 14.521-14.3075 14.521h-22.8759c-6.2661 0-11.4513 5.36294-11.4513 11.6381v21.8082c0 6.20675 5.3972 9.85749 11.4513 11.6381 7.24968 2.13169 14.2017 2.51694 22.8759 0 5.76583-1.6694 11.4513-5.02906 11.4513-11.6381v-8.72859h-22.8759v-2.90954h34.3272c6.65614 0 9.13651-4.6428 11.4513-11.6114 2.39112-7.17414 2.28939-14.0732 0-23.2764-1.64496-6.62623-4.78669-11.6114-11.4513-11.6114zm-12.866 55.2279c2.37417 0 4.29758 1.94532 4.29758 4.35097-1e-6 2.4142-1.92342 4.37766-4.29758 4.37766-2.36568 0-4.29758-1.96346-4.29758-4.37766 2e-6 -2.40565 1.93189-4.35097 4.29758-4.35097z" fill="url(#b)" stroke-width=".854176"/></svg>
